# xmcd
#
# Track frame offsets:
#	150
#	24343
#	50099
#	71923
#	93336
#	116479
#	143235
#	167875
#	191971
#	212763
#	235270
#	262549
#	284314
#	301560
#	318249
#
# Disc length: 4375 seconds
#
# Revision: 0
# Processed by: cddbd v1.5.2PL0 Copyright (c) Steve Scherf et al.
# Submitted via: EasyCDDAExtractor 15.3.0.1
#
DISCID=d211150f
DTITLE=Alejandro Sanz - Grandes Exitos 91_04 - CD 2 - 97_04
DYEAR=2004
DGENRE=Latin
TTITLE0=Y, Si Fuera Ella
TTITLE1=Corazon Partio
TTITLE2=Amiga Mia
TTITLE3=Aquello Que Me Diste
TTITLE4=Cuando Nadie Me Ve
TTITLE5=El Alma Al Aire
TTITLE6=Quisiera Ser
TTITLE7=Hay Un Universo De Pequeñas Cosas
TTITLE8=Y Solo Se Me Ocurre Amarte
TTITLE9=Aprendiz
TTITLE10=No Es Lo Mismo
TTITLE11=Regalame La Silla Donde Te Espere
TTITLE12=He Sido Tan Feliz Contigo
TTITLE13=Try To Save Your S'ong
TTITLE14=Cuando Sea Espacio (Inedito)
EXTD=YEAR: 2004\n
EXTT0=
EXTT1=
EXTT2=
EXTT3=
EXTT4=
EXTT5=
EXTT6=
EXTT7=
EXTT8=
EXTT9=
EXTT10=
EXTT11=
EXTT12=
EXTT13=
EXTT14=
PLAYORDER=
